<?xml version="1.0" standalone="no"?>
<!DOCTYPE svg PUBLIC "-//W3C//DTD SVG 20010904//EN"
 "http://www.w3.org/TR/2001/REC-SVG-20010904/DTD/svg10.dtd">
<svg version="1.0" xmlns="http://www.w3.org/2000/svg"
 width="66.000000pt" height="60.000000pt" viewBox="0 0 66.000000 60.000000"
 preserveAspectRatio="xMidYMid meet">

<g transform="translate(0.000000,60.000000) scale(0.100000,-0.100000)"
fill="#000000" stroke="none">
<path d="M175 588 c-61 -33 -61 -85 -1 -142 54 -50 76 -92 76 -145 0 -60 -16
-91 -70 -143 -36 -33 -50 -54 -50 -73 0 -38 15 -60 49 -74 24 -10 34 -10 59 3
32 16 42 34 42 72 0 45 29 98 77 140 37 33 46 48 46 74 0 26 -9 41 -46 74 -48
42 -77 95 -77 140 0 38 -10 55 -41 71 -33 18 -38 18 -64 3z"/>
<path d="M402 567 c-12 -13 -22 -36 -22 -51 0 -34 41 -76 75 -76 35 0 75 42
75 78 0 63 -84 95 -128 49z"/>
<path d="M34 357 c-53 -46 -23 -130 46 -130 69 0 99 84 46 130 -15 12 -36 23
-46 23 -10 0 -31 -11 -46 -23z"/>
<path d="M534 357 c-53 -46 -23 -130 46 -130 69 0 99 84 46 130 -15 12 -36 23
-46 23 -10 0 -31 -11 -46 -23z"/>
<path d="M405 135 c-32 -31 -33 -74 -2 -103 72 -67 172 34 102 103 -31 32 -69
32 -100 0z"/>
</g>
</svg>
